<svg width="57" height="78" viewBox="0 0 57 78" fill="none" xmlns="http://www.w3.org/2000/svg">
<path d="M36.4981 23.7802C21.882 19.9939 6.97135 28.7769 3.19201 43.3963C-0.587334 58.0195 8.19178 72.9415 22.8079 76.7278C37.424 80.5141 52.3347 71.7311 56.114 57.1117C59.8934 42.4885 51.1105 27.5665 36.4981 23.7802Z" fill="#FF8D24"/>
<path d="M34.1923 23.1843C19.5762 19.398 4.66551 28.181 0.886169 42.8004C-2.89317 57.4236 5.88972 72.3456 20.5021 76.1319C35.1182 79.9182 50.0288 71.1351 53.8082 56.5157C57.5875 41.8926 48.8046 26.9706 34.1923 23.1843Z" fill="#FFE27C"/>
<path d="M27.9186 35.2003C19.6777 35.2363 13.026 41.9519 13.0646 50.1976C13.1032 58.4452 19.8172 65.1009 28.0582 65.065C36.2992 65.029 42.9509 58.3134 42.9122 50.0677C42.8736 41.82 36.1616 35.1644 27.9186 35.2003Z" fill="#FF9D43"/>
<path d="M33.5806 46.1933L33.0231 47.8848L22.3882 47.8848L22.9456 46.1933L33.5806 46.1933ZM28.5951 57.5968L22.5861 51.0638L22.5529 49.8389L25.5399 49.8389C26.3167 49.8389 26.9787 49.7417 27.5257 49.5472C28.0727 49.3479 28.4911 49.0514 28.7809 48.6577C29.0707 48.2591 29.2155 47.7585 29.2153 47.1557C29.215 46.2662 28.9139 45.5687 28.312 45.0631C27.71 44.5527 26.7854 44.2975 25.5381 44.2975L22.387 44.2975L22.9445 42.6643L25.5375 42.6643C26.8724 42.6643 27.9666 42.8612 28.8201 43.2549C29.6792 43.6438 30.3139 44.1785 30.7245 44.859C31.1405 45.5346 31.3486 46.3002 31.3489 47.1557C31.3491 47.9286 31.1579 48.6407 30.7752 49.292C30.3979 49.9385 29.7908 50.4586 28.9539 50.8524C28.1225 51.2461 27.023 51.443 25.6553 51.443L25.6061 51.443L31.1553 57.4801L31.1554 57.5968L28.5951 57.5968ZM33.5794 42.6643L33.022 44.3559L24.6518 44.2975L25.2093 42.6643L33.5794 42.6643Z" fill="#F7DE61"/>
<path d="M27.2628 74.8927C25.2025 74.8927 23.1081 74.6355 21.0212 74.0946C14.5827 72.4265 9.17539 68.349 5.80143 62.6109C2.42368 56.8728 1.48395 50.1664 3.14898 43.7248C4.814 37.2832 8.89123 31.8742 14.6212 28.4964C20.3549 25.1186 27.0571 24.1806 33.4956 25.8487C39.9379 27.5167 45.3414 31.5943 48.7191 37.3324C52.0931 43.0704 53.0366 49.7768 51.3716 56.2184C48.4719 67.4336 38.3392 74.8889 27.2665 74.8927L27.2628 74.8927ZM27.2129 26.5295C23.0885 26.5295 19.025 27.6302 15.3776 29.7787C9.98789 32.9522 6.15625 38.0397 4.58939 44.0955C3.02253 50.1551 3.90919 56.4605 7.08268 61.8544C10.2562 67.2483 15.3421 71.0837 21.3987 72.6535C23.3609 73.1603 25.3305 73.4062 27.266 73.4062C37.6809 73.4062 47.209 66.3934 49.9349 55.8478C53.1706 43.339 45.6283 30.5276 33.1256 27.2898C31.1672 26.7829 29.1824 26.5333 27.2129 26.5333L27.2129 26.5295Z" fill="#FF9D43"/>
<path fill-rule="evenodd" clip-rule="evenodd" d="M19.0411 3.5146C30.0149 5.52319 32.0162 19.5294 32.0162 19.5294C32.0162 19.5294 20.2903 14.7708 18.0472 10.5244C15.804 6.27809 19.0411 3.5146 19.0411 3.5146Z" fill="url(#paint0_linear_53_2800)"/>
<path fill-rule="evenodd" clip-rule="evenodd" d="M53.8144 12.4646C49.0411 22.583 35.043 20.8981 35.043 20.8981C35.043 20.8981 42.6577 10.7622 47.3252 9.68675C51.9926 8.61125 53.8144 12.4646 53.8144 12.4646Z" fill="url(#paint1_linear_53_2800)"/>
<path fill-rule="evenodd" clip-rule="evenodd" d="M40.482 1.53645C44.2357 12.0788 33.1504 20.8214 33.1504 20.8214C33.1504 20.8214 31.3936 8.25028 33.9362 4.17747C36.4788 0.104663 40.482 1.53645 40.482 1.53645Z" fill="url(#paint2_linear_53_2800)"/>
<defs>
<linearGradient id="paint0_linear_53_2800" x1="26.6074" y1="29.0722" x2="-14.7061" y2="-26.0849" gradientUnits="userSpaceOnUse">
<stop stop-color="#205B45"/>
<stop offset="1" stop-color="#46B78D"/>
</linearGradient>
<linearGradient id="paint1_linear_53_2800" x1="27.2585" y1="13.1847" x2="91.1881" y2="-12.2084" gradientUnits="userSpaceOnUse">
<stop stop-color="#205B45"/>
<stop offset="1" stop-color="#46B78D"/>
</linearGradient>
<linearGradient id="paint2_linear_53_2800" x1="22.2115" y1="20.8916" x2="49.5352" y2="-42.4288" gradientUnits="userSpaceOnUse">
<stop stop-color="#205B45"/>
<stop offset="1" stop-color="#46B78D"/>
</linearGradient>
</defs>
</svg>
